<svg id="svg" version="1.1" viewBox="0 0 300 299.9126508096917" width="300" height="299.9126508096917" xmlns="http://www.w3.org/2000/svg"><g xmlns="http://www.w3.org/2000/svg" id="svg" fill="#000000" fill-rule="evenodd" stroke="none" stroke-width="1" stroke-linecap="butt" stroke-linejoin="miter" stroke-miterlimit="10" stroke-dasharray="" stroke-dashoffset="0" font-family="none" font-weight="none" font-size="none" text-anchor="none" style="mix-blend-mode: normal"><path d="M134.86267,0.41513c-1.81244,0.28689 -4.95232,0.72226 -6.97799,0.96767c-2.02528,0.24579 -4.7294,0.68427 -6.00916,0.97503c-1.27937,0.29077 -3.72219,0.83275 -5.42802,1.20493c-3.67683,0.80174 -9.82711,2.47539 -10.65637,2.89952c-0.32256,0.16515 -1.72056,0.65403 -3.10654,1.08669c-3.84354,1.19951 -7.6987,2.60604 -10.27372,3.74855c-1.27937,0.56757 -3.11119,1.38133 -4.07072,1.80818c-4.43902,1.97449 -7.85727,3.71521 -12.12648,6.17625c-2.54478,1.46701 -4.78252,2.66729 -4.97326,2.66729c-0.19035,0 -0.34621,0.17446 -0.34621,0.38769c0,0.21323 -0.19035,0.38769 -0.42297,0.38769c-0.34349,0 -2.3017,1.25223 -5.58387,3.57099c-11.40306,8.05654 -21.65585,17.40136 -30.04812,27.38781c-0.95953,1.14174 -2.14895,2.53742 -2.64287,3.1015c-0.49391,0.56409 -1.71203,2.15942 -2.70645,3.5454c-0.99481,1.38598 -1.94232,2.57812 -2.10631,2.64907c-0.16399,0.07133 -0.29813,0.27875 -0.29813,0.46135c0,0.18221 -0.9793,1.6942 -2.17609,3.3597c-1.19679,1.66551 -2.33039,3.37715 -2.51919,3.8036c-0.40009,0.90486 -1.21618,2.24161 -1.53796,2.51997c-0.2582,0.22331 -0.28418,0.27293 -4.86393,9.31342c-1.89269,3.73615 -3.67373,7.3998 -3.95829,8.14144c-0.89091,2.32264 -1.28208,3.25192 -1.84501,4.38397c-0.30007,0.60363 -0.54664,1.30147 -0.5478,1.55075c-0.00155,0.24928 -0.24657,0.92115 -0.54509,1.49337c-0.29852,0.57184 -0.66062,1.57673 -0.80445,2.23308c-0.14422,0.65597 -0.49663,1.67093 -0.78352,2.25518c-0.2865,0.58425 -0.64046,1.71513 -0.78623,2.51338l-0.26518,1.45112l26.50233,0.09964l26.50233,0.09964l0.09847,52.24092l0.09808,52.24092h8.28876h8.28876l-0.09266,-42.54873c-0.05117,-23.40199 0.01279,-46.91021 0.14189,-52.24092l0.23494,-9.69219l20.74129,-0.19384l20.74129,-0.19384l0.09808,-6.59069c0.05389,-3.62488 0.00698,-6.98303 -0.10429,-7.46299l-0.20237,-0.8723h-47.69024c-39.35457,0 -47.72513,-0.09033 -47.88874,-0.5164c-0.4819,-1.25572 6.45074,-13.76989 11.74151,-21.19411c2.05164,-2.87858 3.84741,-5.32101 3.99086,-5.42763c0.14383,-0.10661 0.82422,-0.97891 1.51276,-1.93844c1.99543,-2.78205 5.6238,-6.77756 11.26582,-12.40601c5.43344,-5.41987 5.67614,-5.63969 10.48773,-9.49757c1.59533,-1.27898 2.98752,-2.42809 3.09414,-2.55409c0.49042,-0.57959 10.64164,-7.4688 13.76291,-9.34017c2.84485,-1.70583 13.47447,-7.12337 16.67057,-8.49656c4.15873,-1.78647 15.39198,-5.62651 18.80285,-6.42747c11.40655,-2.67815 18.77882,-3.78306 29.3592,-4.40064c8.99784,-0.52493 21.18132,-0.06978 26.08014,0.97426c1.38598,0.29542 3.4795,0.64511 4.65225,0.77731c3.11701,0.35125 9.79648,1.86206 14.92598,3.37598c4.12073,1.21618 12.79873,4.07343 13.61831,4.484c0.39932,0.20005 1.33675,0.63891 2.08305,0.97542c14.95195,6.74228 23.33958,11.94698 36.44265,22.61266c6.65078,5.41367 16.9152,16.20767 21.52636,22.6367c0.84128,1.17276 1.84384,2.47732 2.22804,2.89913c0.3842,0.4218 1.86168,2.60255 3.28294,4.8461c1.42126,2.24355 2.6797,4.16648 2.79639,4.27309c0.20819,0.19035 0.79825,1.17586 1.85664,3.1015c0.29309,0.53307 1.05141,1.84152 1.68489,2.90766c1.4515,2.44204 2.74095,5.19346 5.74553,12.25907c0.87269,2.05164 1.58642,3.97961 1.58642,4.28395c0,0.30472 0.14616,0.71994 0.32488,0.92231c0.34776,0.39428 1.45926,3.56246 2.57735,7.34668c0.378,1.27937 0.85873,2.76228 1.06847,3.29535c0.20935,0.53307 0.70249,2.45212 1.09599,4.26456c0.39312,1.81244 0.98395,4.42933 1.31271,5.81532c0.55323,2.33388 0.75909,3.48648 1.76437,9.88604c1.57362,10.01552 1.49221,28.08371 -0.17562,38.96262c-1.10607,7.21564 -1.64845,10.13493 -2.1978,11.82448c-0.20819,0.63968 -0.41405,1.33752 -0.45747,1.55075c-0.04924,0.24114 1.66744,0.38769 4.5437,0.38769h4.6224l0.6897,-3.29535c1.75467,-8.38258 2.29938,-11.93729 2.85144,-18.60901c0.68233,-8.24922 0.75715,-15.37337 0.20431,-19.45339c-0.21168,-1.56122 -0.64821,-5.54277 -0.96999,-8.84781c-0.59859,-6.15183 -1.32163,-11.10144 -2.12298,-14.53829c-1.33713,-5.73313 -3.21975,-13.27947 -3.48221,-13.95676c-0.16515,-0.42646 -0.59975,-1.7349 -0.96573,-2.90766c-0.36559,-1.17276 -0.913,-2.78631 -1.21579,-3.58611c-1.34566,-3.55161 -1.84423,-4.82439 -2.31566,-5.91224c-0.2772,-0.63968 -0.79825,-1.8609 -1.15802,-2.71381c-3.66016,-8.67955 -13.79509,-25.78278 -18.83813,-31.79039c-0.35784,-0.42646 -2.10127,-2.51997 -3.87378,-4.65225c-6.78609,-8.16277 -19.3933,-19.96824 -26.18133,-24.51621c-0.3935,-0.26402 -1.99698,-1.37048 -3.56324,-2.4591c-3.5613,-2.47539 -9.21921,-6.03126 -12.27225,-7.71227c-6.0708,-3.34342 -10.34428,-5.48501 -13.18138,-6.60697c-1.70583,-0.67419 -3.79934,-1.53602 -4.65225,-1.91479c-0.85291,-0.37877 -2.42305,-0.99519 -3.48919,-1.36931c-1.06614,-0.37451 -2.81074,-0.98938 -3.87688,-1.3666c-1.06614,-0.37683 -2.9852,-0.98628 -4.26456,-1.35381c-1.27937,-0.36753 -3.37288,-0.98201 -4.65225,-1.36544c-1.27937,-0.38381 -3.7218,-0.99519 -5.42763,-1.35885c-1.70583,-0.36365 -4.10833,-0.89982 -5.33846,-1.19136c-1.23052,-0.29115 -3.84741,-0.71606 -5.81532,-0.94441c-1.96829,-0.22796 -4.71234,-0.6013 -6.09833,-0.82926c-4.01606,-0.66062 -27.07185,-0.76646 -31.01502,-0.14228M126.60919,91.58688c-0.13298,0.13259 -0.24928,27.08658 -0.2582,59.89775l-0.01706,59.65622h8.52719h8.52719l0.09886,-43.09808c0.06591,-28.79977 0.22951,-43.1415 0.49314,-43.22951c0.21672,-0.07211 0.82733,0.69784 1.35691,1.71125c0.52919,1.0138 1.36427,2.50911 1.85547,3.32287c0.87617,1.45267 1.59068,2.69559 3.21665,5.59744c0.44817,0.7998 1.03629,1.71552 1.30651,2.03536c0.27022,0.31984 0.55788,0.76413 0.6393,0.98705c0.11553,0.31829 3.65318,6.34916 5.78818,9.8682c3.54851,5.84827 5.79593,9.75306 5.79593,10.07058c0,0.21827 0.1543,0.39699 0.34233,0.39699c0.18842,0 0.44274,0.3055 0.56525,0.67845c0.12212,0.37296 0.62224,1.3193 1.11111,2.10243c1.62402,2.60177 4.08545,6.69808 4.89495,8.14609c0.43925,0.78546 1.24409,2.13422 1.7884,2.99683c0.5447,0.86261 0.99015,1.66085 0.99015,1.77406c0,0.1132 0.89401,1.63255 1.98729,3.37637c1.09289,1.74382 2.43003,3.96643 2.97163,4.93875c0.54199,0.97271 1.30341,2.29162 1.69264,2.93131c0.38924,0.63968 0.83004,1.42475 0.97891,1.74459c0.14926,0.31984 0.76142,1.26192 1.3604,2.09351c0.59898,0.83159 1.08901,1.73296 1.08901,2.00318c0,0.26983 0.13065,0.54897 0.29077,0.6203c0.16012,0.07095 0.6738,0.82694 1.14174,1.67985l0.85059,1.55075l4.60651,0.10816c4.45376,0.10506 4.62124,0.07909 5.0663,-0.77538c0.25316,-0.48577 0.98124,-1.75584 1.61821,-2.82198c0.63697,-1.06614 1.45422,-2.54905 1.81632,-3.29535c0.3621,-0.7463 0.77925,-1.44414 0.92696,-1.55075c0.14771,-0.10661 0.68,-0.94518 1.18322,-1.86323c1.10026,-2.00822 1.39529,-2.50136 2.76383,-4.62279c0.58231,-0.90215 1.05839,-1.72715 1.05839,-1.83415c0,-0.10661 0.58425,-1.11305 1.29837,-2.23696c1.38366,-2.17764 3.21316,-5.35901 3.90363,-6.7888c0.23067,-0.47802 0.55013,-0.87075 0.71024,-0.8723c0.16012,-0.00155 0.29077,-0.19074 0.29077,-0.42025c0,-0.22912 0.74165,-1.66861 1.64767,-3.19842c0.90603,-1.52943 1.78065,-3.04296 1.94309,-3.3628c0.16244,-0.31984 0.64007,-1.10491 1.06188,-1.74459c0.42142,-0.63968 0.88664,-1.42475 1.03319,-1.74459c0.14655,-0.31984 0.70171,-1.27937 1.23362,-2.13228c0.53152,-0.85291 1.46197,-2.45329 2.06754,-3.55626c0.60557,-1.10336 2.13577,-3.72025 3.40041,-5.81532c1.26464,-2.09545 2.94526,-5.03102 3.7346,-6.52362c0.78933,-1.4926 2.04815,-3.67334 2.79717,-4.8461c1.57673,-2.46841 3.38955,-5.58387 4.06064,-6.97838c0.25626,-0.53307 0.68621,-1.19989 0.95526,-1.48135c0.26906,-0.28185 0.48926,-0.73467 0.48926,-1.00605c0,-0.70947 1.42592,-1.90006 1.91401,-1.59844c0.28689,0.17756 0.41211,13.36709 0.41211,43.45902v43.20431l18.89978,0.00582c10.39507,0.00349 19.13433,0.15469 19.42122,0.33651c0.58153,0.36869 -0.6234,2.83826 -4.19246,8.59232c-1.07273,1.72986 -1.95046,3.22091 -1.95046,3.31318c0,0.23067 -3.95325,6.0173 -4.55533,6.66823c-0.26634,0.28805 -0.48461,0.65287 -0.48461,0.81066c0,0.15779 -0.3055,0.62495 -0.67845,1.03823c-0.37296,0.41366 -1.78647,2.23463 -3.14066,4.04707c-5.27876,7.06522 -13.81021,15.89403 -20.9929,21.72447c-1.17276,0.95177 -2.21951,1.81787 -2.32613,1.92448c-0.56447,0.56447 -6.6407,5.07638 -8.14144,6.0456c-0.95953,0.61952 -1.91905,1.26503 -2.13228,1.43367c-2.07646,1.64573 -8.97148,5.6804 -14.33437,8.38879c-5.93085,2.99489 -7.8499,3.8889 -11.05918,5.15431c-0.53307,0.21013 -1.4926,0.6141 -2.13228,0.8975c-1.31232,0.58192 -9.07693,3.22595 -10.85526,3.6966c-0.63968,0.16942 -2.55874,0.67923 -4.26456,1.13321c-6.61628,1.76049 -14.32739,3.07824 -22.67973,3.8761c-6.00179,0.573 -23.43689,0.47298 -27.18428,-0.15624c-1.78724,-0.30007 -4.29597,-0.66488 -5.57534,-0.81027c-4.67241,-0.5323 -14.01491,-2.66186 -20.35361,-4.64023c-0.95953,-0.29929 -2.61689,-0.80639 -3.68303,-1.12662c-11.71747,-3.51904 -27.86157,-11.8206 -38.52802,-19.81162c-1.99969,-1.49803 -4.09321,-3.06351 -4.65225,-3.47872c-1.04017,-0.77227 -5.14151,-4.2099 -6.26891,-5.25433c-0.34543,-0.31984 -2.15903,-1.9679 -4.0304,-3.66249c-3.12709,-2.83167 -10.94326,-11.43989 -13.74779,-15.14037c-1.25378,-1.65504 -6.8737,-9.64412 -8.92573,-12.68979c-2.40289,-3.56634 -10.10741,-18.86915 -10.10741,-20.07602c0,-0.21555 -0.16826,-0.69512 -0.37412,-1.06537c-0.72847,-1.31077 -1.88649,-4.19013 -2.53121,-6.2945c-0.35939,-1.17276 -0.79786,-2.4812 -0.97465,-2.90766c-0.17679,-0.42646 -0.63271,-1.99659 -1.01342,-3.48919c-0.38071,-1.4926 -0.91727,-3.14996 -1.19253,-3.68303c-0.27487,-0.53307 -0.50089,-1.44297 -0.50244,-2.02179c-0.00116,-0.57882 -0.24851,-1.80003 -0.54974,-2.71381c-0.54431,-1.65271 -1.18981,-5.57999 -2.37614,-14.45494c-1.74304,-13.03949 -0.69823,-35.51491 2.17144,-46.70668c0.18997,-0.74087 0.20586,-1.48639 0.03528,-1.65698c-0.17058,-0.17058 -2.18229,-0.34388 -4.47043,-0.38536c-4.58557,-0.08335 -4.87595,0.05234 -4.8868,2.28193c-0.0031,0.67031 -0.26091,2.50214 -0.57261,4.07072c-0.31209,1.56858 -0.93549,6.18362 -1.38598,10.2555c-0.68815,6.22045 -0.79321,9.03855 -0.65636,17.63979c0.08956,5.63 0.36869,11.89387 0.61991,13.91954c1.44879,11.67948 3.25037,20.65561 5.29116,26.36277c0.26673,0.7463 0.70559,2.30984 0.97465,3.47485c0.71528,3.09336 6.54339,17.52349 8.4609,20.94948c0.17911,0.31984 1.07467,1.97721 1.98961,3.68303c0.91533,1.70583 2.7111,4.75887 3.99125,6.78454c1.28014,2.02567 2.52075,4.03738 2.75685,4.47043c2.52385,4.62977 12.32692,16.53643 19.28204,23.41983c6.74422,6.67482 18.76951,16.69383 20.03609,16.69383c0.21827,0 0.45476,0.13065 0.52609,0.29077c0.26673,0.60014 10.58543,7.18036 13.11664,8.36436c0.31984,0.14965 1.45383,0.79127 2.51997,1.4263c3.06971,1.82795 9.11958,4.69606 15.50751,7.35172c0.42646,0.17717 1.38598,0.53191 2.13228,0.78817c0.7463,0.25626 1.70583,0.61216 2.13228,0.79088c0.72963,0.3055 1.8671,0.66256 8.52913,2.67853c4.9341,1.49337 6.56084,1.92797 9.49835,2.53819c7.27341,1.51121 11.24876,2.16524 15.3505,2.52462c2.43197,0.21323 5.59937,0.55788 7.03847,0.76607c4.45221,0.64395 15.78664,0.45825 23.85171,-0.39079c12.1133,-1.2751 19.46425,-2.67853 29.74612,-5.68001c1.17276,-0.34233 2.4812,-0.76762 2.90766,-0.94557c0.42646,-0.17756 2.51997,-0.92115 4.65225,-1.65233c5.01784,-1.72056 5.76608,-2.0435 13.37523,-5.77577c10.09151,-4.94961 18.49658,-10.19929 28.29229,-17.67081c6.73569,-5.13725 16.36275,-14.39097 22.07145,-21.21466c1.6186,-1.93534 3.51478,-4.20331 4.213,-5.03994c1.33442,-1.59921 9.39639,-13.56248 10.16944,-15.09074c0.10778,-0.21323 0.79321,-1.417 1.52323,-2.67466c2.28271,-3.9327 5.83548,-10.81688 6.72289,-13.0267c0.21439,-0.53307 0.61681,-1.4926 0.89478,-2.13228c0.27797,-0.63968 1.14213,-2.82043 1.92022,-4.8461c0.77848,-2.02567 1.66047,-4.25604 1.96054,-4.9562c1.10762,-2.58626 2.44243,-2.40987 -18.23489,-2.40987c-13.50239,0 -18.85597,-0.12251 -19.04981,-0.43654c-0.14848,-0.23998 -0.32643,-23.57413 -0.39583,-51.85323c-0.0694,-28.27911 -0.13259,-51.63845 -0.14073,-51.90945c-0.01163,-0.38497 -1.68024,-0.46988 -7.63318,-0.38769l-7.61884,0.10506l-1.14911,2.13228c-0.63193,1.17276 -1.6845,3.09181 -2.33931,4.26456c-0.6548,1.17276 -1.42863,2.56843 -1.71978,3.1015c-0.29154,0.53307 -0.95991,1.66706 -1.48562,2.51997c-0.5257,0.85291 -1.13476,1.89967 -1.35342,2.32613c-0.21866,0.42646 -0.60906,1.12429 -0.86765,1.55075c-6.14097,10.13028 -11.90279,19.95623 -11.90279,20.29855c0,0.24347 -0.1543,0.44274 -0.34233,0.44274c-0.18842,0 -0.44507,0.3055 -0.57029,0.67845c-0.12561,0.37296 -0.40475,0.94014 -0.62069,1.25999c-0.75754,1.12158 -4.55611,7.58278 -5.77849,9.82866c-0.67923,1.24797 -1.75351,3.0228 -2.38738,3.94472c-0.63426,0.92153 -1.32783,2.08111 -1.54145,2.57696c-0.21323,0.49585 -0.55711,1.16345 -0.76336,1.48329c-0.48151,0.7463 -6.12236,10.29272 -6.9873,11.82448c-0.36094,0.63968 -1.42592,2.52695 -2.36645,4.19401c-3.27131,5.79903 -5.68622,9.56891 -6.12934,9.56891c-0.37955,0 -1.10879,-1.04753 -2.6231,-3.76716c-2.17299,-3.90246 -2.44166,-4.3673 -3.4039,-5.89208c-0.5447,-0.86261 -0.99015,-1.65039 -0.99015,-1.75041c0,-0.10002 -0.52338,-0.95759 -1.16306,-1.90549c-0.63968,-0.9479 -1.16306,-1.82562 -1.16306,-1.95046c0,-0.12484 -0.59626,-1.15919 -1.3255,-2.29899c-0.72885,-1.13941 -1.6721,-2.689 -2.09584,-3.44344c-0.42374,-0.75444 -1.00489,-1.78802 -1.29139,-2.29705c-0.2865,-0.50903 -0.60828,-1.01264 -0.7149,-1.11925c-0.28456,-0.28456 -1.12778,-1.65543 -1.43096,-2.32613c-0.14422,-0.31984 -1.45189,-2.55951 -2.90494,-4.97752c-1.45344,-2.41762 -2.64248,-4.484 -2.64248,-4.59216c0,-0.10816 -0.39273,-0.74436 -0.8723,-1.41428c-0.47957,-0.66954 -1.0673,-1.56858 -1.30612,-1.99814c-0.23843,-0.42956 -1.96092,-3.3977 -3.82764,-6.59612c-1.8671,-3.19842 -3.83384,-6.60038 -4.37118,-7.55991c-0.53695,-0.95953 -1.25688,-2.18152 -1.5996,-2.71536c-1.29449,-2.01753 -1.60464,-2.5347 -1.85702,-3.09995c-0.14306,-0.31984 -0.38575,-0.66876 -0.53966,-0.77538c-0.15352,-0.10661 -0.71373,-1.01186 -1.24487,-2.01132c-0.53074,-0.99985 -1.2972,-2.30829 -1.70311,-2.90766c-0.40552,-0.59975 -1.24176,-2.04971 -1.8578,-3.22246c-0.61642,-1.17276 -2.31023,-4.11027 -3.76445,-6.52827c-1.45383,-2.41762 -2.64364,-4.484 -2.64364,-4.59216c0,-0.10816 -0.36094,-0.70327 -0.80174,-1.32279l-0.80174,-1.12585h-7.4688c-4.10794,0 -7.57774,0.10855 -7.71033,0.24153"/></g></svg>